<svg fill="none" height="50" viewBox="0 0 50 50" width="50" xmlns="http://www.w3.org/2000/svg">
	<rect fill="white" height="31.3726" width="30.4314" x="9.31372" y="9" />
	<path clip-rule="evenodd" d="M5.54907 8.4307C5.54907 6.83922 6.83922 5.54907 8.4307 5.54907H41.5694C43.1609 5.54907 44.451 6.83922 44.451 8.4307V41.5694C44.451 43.1609 43.1609 44.451 41.5694 44.451H8.4307C6.83922 44.451 5.54907 43.1609 5.54907 41.5694V8.4307ZM11.3123 12.0327C11.3123 11.6349 11.6349 11.3123 12.0327 11.3123H16.3552C16.753 11.3123 17.0756 11.6349 17.0756 12.0327V16.3552C17.0756 16.753 16.753 17.0756 16.3552 17.0756H12.0327C11.6349 17.0756 11.3123 16.753 11.3123 16.3552V12.0327ZM19.2368 11.3123C18.8389 11.3123 18.5164 11.6349 18.5164 12.0327V16.3552C18.5164 16.753 18.8389 17.0756 19.2368 17.0756H23.5592C23.9571 17.0756 24.2796 16.753 24.2796 16.3552V12.0327C24.2796 11.6349 23.9571 11.3123 23.5592 11.3123H19.2368ZM25.7205 12.0327C25.7205 11.6349 26.043 11.3123 26.4409 11.3123H30.7633C31.1612 11.3123 31.4837 11.6349 31.4837 12.0327V16.3552C31.4837 16.753 31.1612 17.0756 30.7633 17.0756H26.4409C26.043 17.0756 25.7205 16.753 25.7205 16.3552V12.0327ZM12.0327 18.5164C11.6349 18.5164 11.3123 18.8389 11.3123 19.2368V23.5592C11.3123 23.9571 11.6349 24.2796 12.0327 24.2796H16.3552C16.753 24.2796 17.0756 23.9571 17.0756 23.5592V19.2368C17.0756 18.8389 16.753 18.5164 16.3552 18.5164H12.0327ZM18.5164 19.2368C18.5164 18.8389 18.8389 18.5164 19.2368 18.5164H23.5592C23.9571 18.5164 24.2796 18.8389 24.2796 19.2368V23.5592C24.2796 23.9571 23.9571 24.2796 23.5592 24.2796H19.2368C18.8389 24.2796 18.5164 23.9571 18.5164 23.5592V19.2368ZM33.6449 18.5164C33.2471 18.5164 32.9245 18.8389 32.9245 19.2368V23.5592C32.9245 23.9571 33.2471 24.2796 33.6449 24.2796H37.9674C38.3652 24.2796 38.6878 23.9571 38.6878 23.5592V19.2368C38.6878 18.8389 38.3652 18.5164 37.9674 18.5164H33.6449ZM11.3123 26.4409C11.3123 26.043 11.6349 25.7205 12.0327 25.7205H16.3552C16.753 25.7205 17.0756 26.043 17.0756 26.4409V30.7633C17.0756 31.1612 16.753 31.4837 16.3552 31.4837H12.0327C11.6349 31.4837 11.3123 31.1612 11.3123 30.7633V26.4409ZM26.4409 25.7205C26.043 25.7205 25.7205 26.043 25.7205 26.4409V30.7633C25.7205 31.1612 26.043 31.4837 26.4409 31.4837H30.7633C31.1612 31.4837 31.4837 31.1612 31.4837 30.7633V26.4409C31.4837 26.043 31.1612 25.7205 30.7633 25.7205H26.4409ZM32.9245 26.4409C32.9245 26.043 33.2471 25.7205 33.6449 25.7205H37.9674C38.3652 25.7205 38.6878 26.043 38.6878 26.4409V30.7633C38.6878 31.1612 38.3652 31.4837 37.9674 31.4837H33.6449C33.2471 31.4837 32.9245 31.1612 32.9245 30.7633V26.4409ZM19.2368 32.9245C18.8389 32.9245 18.5164 33.2471 18.5164 33.6449V37.9674C18.5164 38.3652 18.8389 38.6878 19.2368 38.6878H23.5592C23.9571 38.6878 24.2796 38.3652 24.2796 37.9674V33.6449C24.2796 33.2471 23.9571 32.9245 23.5592 32.9245H19.2368ZM25.7205 33.6449C25.7205 33.2471 26.043 32.9245 26.4409 32.9245H30.7633C31.1612 32.9245 31.4837 33.2471 31.4837 33.6449V37.9674C31.4837 38.3652 31.1612 38.6878 30.7633 38.6878H26.4409C26.043 38.6878 25.7205 38.3652 25.7205 37.9674V33.6449ZM33.6449 32.9245C33.2471 32.9245 32.9245 33.2471 32.9245 33.6449V37.9674C32.9245 38.3652 33.2471 38.6878 33.6449 38.6878H37.9674C38.3652 38.6878 38.6878 38.3652 38.6878 37.9674V33.6449C38.6878 33.2471 38.3652 32.9245 37.9674 32.9245H33.6449Z" fill="#0B63CE" fill-rule="evenodd" />
</svg>